<?xml version="1.0" encoding="UTF-8" standalone="no"?>
<!DOCTYPE svg PUBLIC "-//W3C//DTD SVG 1.1//EN"
 "http://www.w3.org/Graphics/SVG/1.1/DTD/svg11.dtd">
<!-- Generated by graphviz version 2.40.1 (20161225.0304)
 -->
<!-- Title: godep Pages: 1 -->
<svg width="1031pt" height="404pt"
 viewBox="0.00 0.00 1030.92 404.00" xmlns="http://www.w3.org/2000/svg" xmlns:xlink="http://www.w3.org/1999/xlink">
<g id="graph0" class="graph" transform="scale(1 1) rotate(0) translate(4 400)">
<title>godep</title>
<polygon fill="#ffffff" stroke="transparent" points="-4,4 -4,-400 1026.9197,-400 1026.9197,4 -4,4"/>
<!-- _0 -->
<g id="node1" class="node">
<title>_0</title>
<ellipse fill="#98fb98" stroke="#98fb98" cx="179.9197" cy="-234" rx="31.341" ry="18"/>
<text text-anchor="middle" x="179.9197" y="-229.8" font-family="Times,serif" font-size="14.00" fill="#000000">bufio</text>
</g>
<!-- _1 -->
<g id="node2" class="node">
<title>_1</title>
<ellipse fill="#98fb98" stroke="#98fb98" cx="835.9197" cy="-18" rx="31.339" ry="18"/>
<text text-anchor="middle" x="835.9197" y="-13.8" font-family="Times,serif" font-size="14.00" fill="#000000">bytes</text>
</g>
<!-- _2 -->
<g id="node3" class="node">
<title>_2</title>
<ellipse fill="#98fb98" stroke="#98fb98" cx="478.9197" cy="-90" rx="27" ry="18"/>
<text text-anchor="middle" x="478.9197" y="-85.8" font-family="Times,serif" font-size="14.00" fill="#000000">fmt</text>
</g>
<!-- _3 -->
<g id="node4" class="node">
<title>_3</title>
<ellipse fill="#afeeee" stroke="#afeeee" cx="664.9197" cy="-378" rx="108.8715" ry="18"/>
<text text-anchor="middle" x="664.9197" y="-373.8" font-family="Times,serif" font-size="14.00" fill="#000000">github.com/laher/smoosh</text>
</g>
<!-- _4 -->
<g id="node5" class="node">
<title>_4</title>
<ellipse fill="#afeeee" stroke="#afeeee" cx="422.9197" cy="-306" rx="126.7662" ry="18"/>
<text text-anchor="middle" x="422.9197" y="-301.8" font-family="Times,serif" font-size="14.00" fill="#000000">github.com/laher/smoosh/repl</text>
</g>
<!-- _3&#45;&gt;_4 -->
<g id="edge1" class="edge">
<title>_3&#45;&gt;_4</title>
<path fill="none" stroke="#000000" d="M611.8118,-362.1993C575.1282,-351.2852 526.1355,-336.7088 487.2385,-325.1362"/>
<polygon fill="#000000" stroke="#000000" points="488.1635,-321.7598 477.5806,-322.2627 486.1672,-328.4691 488.1635,-321.7598"/>
</g>
<!-- _5 -->
<g id="node6" class="node">
<title>_5</title>
<ellipse fill="#98fb98" stroke="#98fb98" cx="995.9197" cy="-162" rx="27" ry="18"/>
<text text-anchor="middle" x="995.9197" y="-157.8" font-family="Times,serif" font-size="14.00" fill="#000000">os</text>
</g>
<!-- _3&#45;&gt;_5 -->
<g id="edge2" class="edge">
<title>_3&#45;&gt;_5</title>
<path fill="none" stroke="#000000" d="M698.7292,-360.8232C742.8114,-337.9408 821.7411,-295.2888 884.9197,-252 916.3152,-230.4884 949.9418,-202.4408 971.8524,-183.4146"/>
<polygon fill="#000000" stroke="#000000" points="974.4244,-185.8149 979.6471,-176.5968 969.8158,-180.546 974.4244,-185.8149"/>
</g>
<!-- _4&#45;&gt;_0 -->
<g id="edge23" class="edge">
<title>_4&#45;&gt;_0</title>
<path fill="none" stroke="#000000" d="M354.4089,-290.7223C314.6553,-281.1297 263.9053,-267.6297 219.9197,-252 217.8209,-251.2542 215.6794,-250.4438 213.5326,-249.5934"/>
<polygon fill="#000000" stroke="#000000" points="214.7761,-246.3197 204.2004,-245.6842 212.0716,-252.7761 214.7761,-246.3197"/>
</g>
<!-- _4&#45;&gt;_2 -->
<g id="edge24" class="edge">
<title>_4&#45;&gt;_2</title>
<path fill="none" stroke="#000000" d="M438.7185,-287.7738C446.4207,-277.8548 455.052,-264.9822 459.9197,-252 476.6231,-207.4525 479.5857,-151.6022 479.6489,-118.4716"/>
<polygon fill="#000000" stroke="#000000" points="483.1466,-118.1307 479.5748,-108.1561 476.1468,-118.181 483.1466,-118.1307"/>
</g>
<!-- _4&#45;&gt;_5 -->
<g id="edge30" class="edge">
<title>_4&#45;&gt;_5</title>
<path fill="none" stroke="#000000" d="M530.3155,-296.3461C632.2285,-286.3687 777.6389,-269.7828 831.9197,-252 883.326,-235.1589 937.2626,-202.1346 968.6764,-181.1142"/>
<polygon fill="#000000" stroke="#000000" points="970.9854,-183.7773 977.2967,-175.2673 967.0561,-177.9841 970.9854,-183.7773"/>
</g>
<!-- _9 -->
<g id="node10" class="node">
<title>_9</title>
<ellipse fill="#afeeee" stroke="#afeeee" cx="654.9197" cy="-234" rx="147.5942" ry="18"/>
<text text-anchor="middle" x="654.9197" y="-229.8" font-family="Times,serif" font-size="14.00" fill="#000000">github.com/laher/smoosh/evaluator</text>
</g>
<!-- _4&#45;&gt;_9 -->
<g id="edge25" class="edge">
<title>_4&#45;&gt;_9</title>
<path fill="none" stroke="#000000" d="M475.8544,-289.572C509.9601,-278.9875 554.5156,-265.1599 590.6495,-253.9459"/>
<polygon fill="#000000" stroke="#000000" points="592.0889,-257.164 600.6022,-250.8572 590.0141,-250.4785 592.0889,-257.164"/>
</g>
<!-- _10 -->
<g id="node11" class="node">
<title>_10</title>
<ellipse fill="#afeeee" stroke="#afeeee" cx="815.9197" cy="-162" rx="135.4345" ry="18"/>
<text text-anchor="middle" x="815.9197" y="-157.8" font-family="Times,serif" font-size="14.00" fill="#000000">github.com/laher/smoosh/object</text>
</g>
<!-- _4&#45;&gt;_10 -->
<g id="edge27" class="edge">
<title>_4&#45;&gt;_10</title>
<path fill="none" stroke="#000000" d="M535.2299,-297.6783C643.4205,-288.5183 793.3852,-272.3543 811.9197,-252 826.8264,-235.6297 826.4705,-209.8446 823.1733,-190.0623"/>
<polygon fill="#000000" stroke="#000000" points="826.5685,-189.1908 821.182,-180.0674 819.7034,-190.5586 826.5685,-189.1908"/>
</g>
<!-- _12 -->
<g id="node13" class="node">
<title>_12</title>
<ellipse fill="#afeeee" stroke="#afeeee" cx="130.9197" cy="-90" rx="130.8395" ry="18"/>
<text text-anchor="middle" x="130.9197" y="-85.8" font-family="Times,serif" font-size="14.00" fill="#000000">github.com/laher/smoosh/lexer</text>
</g>
<!-- _4&#45;&gt;_12 -->
<g id="edge26" class="edge">
<title>_4&#45;&gt;_12</title>
<path fill="none" stroke="#000000" d="M304.5687,-299.4919C232.7303,-292.7861 150.6309,-279.2458 127.9197,-252 96.6091,-214.4376 109.2055,-153.1873 120.516,-117.7412"/>
<polygon fill="#000000" stroke="#000000" points="123.9063,-118.6404 123.7843,-108.0462 117.2731,-116.4041 123.9063,-118.6404"/>
</g>
<!-- _14 -->
<g id="node15" class="node">
<title>_14</title>
<ellipse fill="#afeeee" stroke="#afeeee" cx="315.9197" cy="-162" rx="135.4133" ry="18"/>
<text text-anchor="middle" x="315.9197" y="-157.8" font-family="Times,serif" font-size="14.00" fill="#000000">github.com/laher/smoosh/parser</text>
</g>
<!-- _4&#45;&gt;_14 -->
<g id="edge28" class="edge">
<title>_4&#45;&gt;_14</title>
<path fill="none" stroke="#000000" d="M307.0583,-298.609C238.6761,-291.5588 161.4002,-277.9668 139.9197,-252 109.5221,-215.2536 163.9834,-191.8819 220.1347,-178.1921"/>
<polygon fill="#000000" stroke="#000000" points="220.9407,-181.5981 229.8808,-175.9127 219.3465,-174.7821 220.9407,-181.5981"/>
</g>
<!-- _16 -->
<g id="node17" class="node">
<title>_16</title>
<ellipse fill="#98fb98" stroke="#98fb98" cx="255.9197" cy="-234" rx="27" ry="18"/>
<text text-anchor="middle" x="255.9197" y="-229.8" font-family="Times,serif" font-size="14.00" fill="#000000">io</text>
</g>
<!-- _4&#45;&gt;_16 -->
<g id="edge29" class="edge">
<title>_4&#45;&gt;_16</title>
<path fill="none" stroke="#000000" d="M379.5101,-289.0264C353.8378,-278.7604 320.7997,-265.1514 291.9197,-252 290.155,-251.1964 288.3499,-250.3555 286.5338,-249.4948"/>
<polygon fill="#000000" stroke="#000000" points="288.0235,-246.3274 277.499,-245.108 284.966,-252.6244 288.0235,-246.3274"/>
</g>
<!-- _17 -->
<g id="node18" class="node">
<title>_17</title>
<ellipse fill="#98fb98" stroke="#98fb98" cx="338.9197" cy="-234" rx="38.2799" ry="18"/>
<text text-anchor="middle" x="338.9197" y="-229.8" font-family="Times,serif" font-size="14.00" fill="#000000">os/user</text>
</g>
<!-- _4&#45;&gt;_17 -->
<g id="edge31" class="edge">
<title>_4&#45;&gt;_17</title>
<path fill="none" stroke="#000000" d="M402.1557,-288.2022C391.024,-278.6608 377.1914,-266.8043 365.3046,-256.6156"/>
<polygon fill="#000000" stroke="#000000" points="367.3136,-253.7278 357.4433,-249.8773 362.7581,-259.0426 367.3136,-253.7278"/>
</g>
<!-- _18 -->
<g id="node19" class="node">
<title>_18</title>
<ellipse fill="#98fb98" stroke="#98fb98" cx="422.9197" cy="-234" rx="27.8286" ry="18"/>
<text text-anchor="middle" x="422.9197" y="-229.8" font-family="Times,serif" font-size="14.00" fill="#000000">path</text>
</g>
<!-- _4&#45;&gt;_18 -->
<g id="edge32" class="edge">
<title>_4&#45;&gt;_18</title>
<path fill="none" stroke="#000000" d="M422.9197,-287.8314C422.9197,-280.131 422.9197,-270.9743 422.9197,-262.4166"/>
<polygon fill="#000000" stroke="#000000" points="426.4198,-262.4132 422.9197,-252.4133 419.4198,-262.4133 426.4198,-262.4132"/>
</g>
<!-- _6 -->
<g id="node7" class="node">
<title>_6</title>
<ellipse fill="#afeeee" stroke="#afeeee" cx="645.9197" cy="-90" rx="122.1909" ry="18"/>
<text text-anchor="middle" x="645.9197" y="-85.8" font-family="Times,serif" font-size="14.00" fill="#000000">github.com/laher/smoosh/ast</text>
</g>
<!-- _6&#45;&gt;_1 -->
<g id="edge3" class="edge">
<title>_6&#45;&gt;_1</title>
<path fill="none" stroke="#000000" d="M690.4663,-73.1192C723.8201,-60.4799 768.8629,-43.411 799.9445,-31.6327"/>
<polygon fill="#000000" stroke="#000000" points="801.4019,-34.8234 809.5128,-28.0069 798.9214,-28.2776 801.4019,-34.8234"/>
</g>
<!-- _7 -->
<g id="node8" class="node">
<title>_7</title>
<ellipse fill="#afeeee" stroke="#afeeee" cx="289.9197" cy="-18" rx="133.1504" ry="18"/>
<text text-anchor="middle" x="289.9197" y="-13.8" font-family="Times,serif" font-size="14.00" fill="#000000">github.com/laher/smoosh/token</text>
</g>
<!-- _6&#45;&gt;_7 -->
<g id="edge4" class="edge">
<title>_6&#45;&gt;_7</title>
<path fill="none" stroke="#000000" d="M573.8778,-75.4297C516.0441,-63.733 434.7472,-47.2909 373.9525,-34.9954"/>
<polygon fill="#000000" stroke="#000000" points="374.4927,-31.5339 363.9973,-32.982 373.105,-38.3949 374.4927,-31.5339"/>
</g>
<!-- _8 -->
<g id="node9" class="node">
<title>_8</title>
<ellipse fill="#98fb98" stroke="#98fb98" cx="645.9197" cy="-18" rx="36.5747" ry="18"/>
<text text-anchor="middle" x="645.9197" y="-13.8" font-family="Times,serif" font-size="14.00" fill="#000000">strings</text>
</g>
<!-- _6&#45;&gt;_8 -->
<g id="edge5" class="edge">
<title>_6&#45;&gt;_8</title>
<path fill="none" stroke="#000000" d="M645.9197,-71.8314C645.9197,-64.131 645.9197,-54.9743 645.9197,-46.4166"/>
<polygon fill="#000000" stroke="#000000" points="649.4198,-46.4132 645.9197,-36.4133 642.4198,-46.4133 649.4198,-46.4132"/>
</g>
<!-- _9&#45;&gt;_2 -->
<g id="edge6" class="edge">
<title>_9&#45;&gt;_2</title>
<path fill="none" stroke="#000000" d="M646.9335,-215.897C637.3447,-195.9635 619.553,-164.0834 595.9197,-144 565.8998,-118.4892 550.5471,-124.8134 514.9197,-108 513.1661,-107.1724 511.3697,-106.3128 509.5603,-105.4377"/>
<polygon fill="#000000" stroke="#000000" points="511.0629,-102.2764 500.5439,-101.0112 507.978,-108.56 511.0629,-102.2764"/>
</g>
<!-- _9&#45;&gt;_5 -->
<g id="edge9" class="edge">
<title>_9&#45;&gt;_5</title>
<path fill="none" stroke="#000000" d="M766.2189,-222.1379C824.8526,-213.9405 897.378,-200.6868 959.9197,-180 961.8105,-179.3746 963.7264,-178.6654 965.6385,-177.8987"/>
<polygon fill="#000000" stroke="#000000" points="967.3252,-180.9788 975.0325,-173.7092 964.474,-174.5858 967.3252,-180.9788"/>
</g>
<!-- _9&#45;&gt;_6 -->
<g id="edge7" class="edge">
<title>_9&#45;&gt;_6</title>
<path fill="none" stroke="#000000" d="M653.7799,-215.7623C652.2448,-191.201 649.4977,-147.2474 647.6919,-118.3541"/>
<polygon fill="#000000" stroke="#000000" points="651.1674,-117.8518 647.0504,-108.0896 644.181,-118.2885 651.1674,-117.8518"/>
</g>
<!-- _9&#45;&gt;_10 -->
<g id="edge8" class="edge">
<title>_9&#45;&gt;_10</title>
<path fill="none" stroke="#000000" d="M693.8934,-216.5708C716.2402,-206.5772 744.4663,-193.9543 768.1417,-183.3666"/>
<polygon fill="#000000" stroke="#000000" points="769.6052,-186.5462 777.305,-179.2687 766.7474,-180.1561 769.6052,-186.5462"/>
</g>
<!-- _11 -->
<g id="node12" class="node">
<title>_11</title>
<ellipse fill="#98fb98" stroke="#98fb98" cx="546.9197" cy="-162" rx="39.9857" ry="18"/>
<text text-anchor="middle" x="546.9197" y="-157.8" font-family="Times,serif" font-size="14.00" fill="#000000">os/exec</text>
</g>
<!-- _9&#45;&gt;_11 -->
<g id="edge10" class="edge">
<title>_9&#45;&gt;_11</title>
<path fill="none" stroke="#000000" d="M628.2231,-216.2022C612.9388,-206.0127 593.6942,-193.183 577.7655,-182.5638"/>
<polygon fill="#000000" stroke="#000000" points="579.5655,-179.5574 569.3036,-176.9225 575.6826,-185.3818 579.5655,-179.5574"/>
</g>
<!-- _10&#45;&gt;_1 -->
<g id="edge12" class="edge">
<title>_10&#45;&gt;_1</title>
<path fill="none" stroke="#000000" d="M873.7528,-145.6516C892.0682,-137.4448 910.2956,-125.4106 920.9197,-108 929.254,-94.342 928.6244,-86.0228 920.9197,-72 910.5244,-53.0802 890.3825,-39.8489 872.3144,-31.2202"/>
<polygon fill="#000000" stroke="#000000" points="873.6764,-27.9954 863.1177,-27.1217 870.827,-34.3892 873.6764,-27.9954"/>
</g>
<!-- _10&#45;&gt;_2 -->
<g id="edge13" class="edge">
<title>_10&#45;&gt;_2</title>
<path fill="none" stroke="#000000" d="M710.6579,-150.6262C652.0221,-142.4373 578.2806,-129.038 514.9197,-108 513.0297,-107.3724 511.1143,-106.6615 509.2026,-105.8936"/>
<polygon fill="#000000" stroke="#000000" points="510.368,-102.581 499.8098,-101.7006 507.5146,-108.973 510.368,-102.581"/>
</g>
<!-- _10&#45;&gt;_6 -->
<g id="edge14" class="edge">
<title>_10&#45;&gt;_6</title>
<path fill="none" stroke="#000000" d="M775.2005,-144.7542C751.3348,-134.6464 721.0076,-121.8019 695.7254,-111.0941"/>
<polygon fill="#000000" stroke="#000000" points="696.8799,-107.7822 686.3067,-107.1051 694.1499,-114.2279 696.8799,-107.7822"/>
</g>
<!-- _10&#45;&gt;_8 -->
<g id="edge16" class="edge">
<title>_10&#45;&gt;_8</title>
<path fill="none" stroke="#000000" d="M812.3258,-143.7952C807.4979,-123.7704 797.0865,-91.8087 776.9197,-72 753.2401,-48.7409 718.13,-34.9988 690.217,-27.2029"/>
<polygon fill="#000000" stroke="#000000" points="690.8548,-23.7516 680.2934,-24.5931 689.0744,-30.5215 690.8548,-23.7516"/>
</g>
<!-- _13 -->
<g id="node14" class="node">
<title>_13</title>
<ellipse fill="#98fb98" stroke="#98fb98" cx="867.9197" cy="-90" rx="44.0833" ry="18"/>
<text text-anchor="middle" x="867.9197" y="-85.8" font-family="Times,serif" font-size="14.00" fill="#000000">hash/fnv</text>
</g>
<!-- _10&#45;&gt;_13 -->
<g id="edge15" class="edge">
<title>_10&#45;&gt;_13</title>
<path fill="none" stroke="#000000" d="M829.0415,-143.8314C835.215,-135.2835 842.6845,-124.9412 849.4196,-115.6156"/>
<polygon fill="#000000" stroke="#000000" points="852.3227,-117.5738 855.3403,-107.4177 846.648,-113.4753 852.3227,-117.5738"/>
</g>
<!-- _12&#45;&gt;_7 -->
<g id="edge11" class="edge">
<title>_12&#45;&gt;_7</title>
<path fill="none" stroke="#000000" d="M169.0042,-72.7542C190.9675,-62.8086 218.7818,-50.2134 242.195,-39.6112"/>
<polygon fill="#000000" stroke="#000000" points="243.9292,-42.6681 251.595,-35.3546 241.0416,-36.2914 243.9292,-42.6681"/>
</g>
<!-- _14&#45;&gt;_2 -->
<g id="edge17" class="edge">
<title>_14&#45;&gt;_2</title>
<path fill="none" stroke="#000000" d="M354.9623,-144.7542C383.1468,-132.3046 420.7301,-115.7034 447.0974,-104.0565"/>
<polygon fill="#000000" stroke="#000000" points="448.5329,-107.2487 456.266,-100.0066 445.7044,-100.8456 448.5329,-107.2487"/>
</g>
<!-- _14&#45;&gt;_6 -->
<g id="edge18" class="edge">
<title>_14&#45;&gt;_6</title>
<path fill="none" stroke="#000000" d="M386.713,-146.5542C439.8428,-134.9622 512.5703,-119.0944 567.4684,-107.1167"/>
<polygon fill="#000000" stroke="#000000" points="568.4788,-110.4786 577.5029,-104.9273 566.9866,-103.6395 568.4788,-110.4786"/>
</g>
<!-- _14&#45;&gt;_7 -->
<g id="edge20" class="edge">
<title>_14&#45;&gt;_7</title>
<path fill="none" stroke="#000000" d="M312.6268,-143.7623C308.1726,-119.0928 300.1861,-74.8598 294.9704,-45.9731"/>
<polygon fill="#000000" stroke="#000000" points="298.4071,-45.3086 293.1859,-36.0896 291.5185,-46.5524 298.4071,-45.3086"/>
</g>
<!-- _14&#45;&gt;_8 -->
<g id="edge22" class="edge">
<title>_14&#45;&gt;_8</title>
<path fill="none" stroke="#000000" d="M348.7164,-144.3391C366.0121,-134.479 387.2481,-121.4863 404.9197,-108 423.4138,-93.8861 422.6066,-83.3406 442.9197,-72 492.4872,-44.3272 556.8322,-30.3419 599.6561,-23.6303"/>
<polygon fill="#000000" stroke="#000000" points="600.4172,-27.0555 609.7896,-22.1149 599.3819,-20.1324 600.4172,-27.0555"/>
</g>
<!-- _14&#45;&gt;_12 -->
<g id="edge19" class="edge">
<title>_14&#45;&gt;_12</title>
<path fill="none" stroke="#000000" d="M272.0773,-144.937C245.7927,-134.7073 212.1804,-121.6258 184.3493,-110.7942"/>
<polygon fill="#000000" stroke="#000000" points="185.3562,-107.4304 174.7677,-107.0651 182.8173,-113.9538 185.3562,-107.4304"/>
</g>
<!-- _15 -->
<g id="node16" class="node">
<title>_15</title>
<ellipse fill="#98fb98" stroke="#98fb98" cx="356.9197" cy="-90" rx="39.4254" ry="18"/>
<text text-anchor="middle" x="356.9197" y="-85.8" font-family="Times,serif" font-size="14.00" fill="#000000">strconv</text>
</g>
<!-- _14&#45;&gt;_15 -->
<g id="edge21" class="edge">
<title>_14&#45;&gt;_15</title>
<path fill="none" stroke="#000000" d="M326.2658,-143.8314C330.9139,-135.6688 336.4938,-125.87 341.6115,-116.8827"/>
<polygon fill="#000000" stroke="#000000" points="344.8121,-118.3352 346.7191,-107.9134 338.7292,-114.8713 344.8121,-118.3352"/>
</g>
</g>
</svg>
