<?xml version="1.0" encoding="UTF-8" standalone="no"?>
<!DOCTYPE svg PUBLIC "-//W3C//DTD SVG 1.1//EN"
 "http://www.w3.org/Graphics/SVG/1.1/DTD/svg11.dtd">
<!-- Generated by graphviz version 2.40.1 (20161225.0304)
 -->
<!-- Title: Smoosh Pages: 1 -->
<svg width="758pt" height="186pt"
 viewBox="0.00 0.00 757.74 186.00" xmlns="http://www.w3.org/2000/svg" xmlns:xlink="http://www.w3.org/1999/xlink">
<g id="graph0" class="graph" transform="scale(1 1) rotate(0) translate(4 182)">
<title>Smoosh</title>
<polygon fill="#ffffff" stroke="transparent" points="-4,4 -4,-182 753.7378,-182 753.7378,4 -4,4"/>
<g id="clust1" class="cluster">
<title>cluster1</title>
<polygon fill="none" stroke="#000000" points="99.8724,-8 99.8724,-85 741.7378,-85 741.7378,-8 99.8724,-8"/>
<text text-anchor="middle" x="420.8051" y="-68.4" font-family="Times,serif" font-size="14.00" fill="#000000">Phases</text>
</g>
<g id="clust2" class="cluster">
<title>cluster2</title>
<polygon fill="none" stroke="#000000" points="8,-93 8,-170 650.7378,-170 650.7378,-93 8,-93"/>
<text text-anchor="middle" x="329.3689" y="-153.4" font-family="Times,serif" font-size="14.00" fill="#000000">Representations</text>
</g>
<!-- Lexer -->
<g id="node1" class="node">
<title>Lexer</title>
<polygon fill="none" stroke="#000000" points="149.8724,-46 107.8724,-46 107.8724,-22 149.8724,-22 161.8724,-34 149.8724,-46"/>
<text text-anchor="middle" x="134.8724" y="-29.8" font-family="Times,serif" font-size="14.00" fill="#000000">Lexer</text>
</g>
<!-- Parser -->
<g id="node2" class="node">
<title>Parser</title>
<polygon fill="none" stroke="#000000" points="335.0842,-46 293.0842,-46 293.0842,-22 335.0842,-22 347.0842,-34 335.0842,-46"/>
<text text-anchor="middle" x="320.0842" y="-29.8" font-family="Times,serif" font-size="14.00" fill="#000000">Parser</text>
</g>
<!-- Lexer&#45;&gt;Parser -->
<g id="edge1" class="edge">
<title>Lexer&#45;&gt;Parser</title>
<path fill="none" stroke="#000000" d="M162.201,-34C194.1639,-34 247.2358,-34 282.9223,-34"/>
<polygon fill="#000000" stroke="#000000" points="282.9452,-37.5001 292.9452,-34 282.9451,-30.5001 282.9452,-37.5001"/>
</g>
<!-- Tokens -->
<g id="node6" class="node">
<title>Tokens</title>
<path fill="none" stroke="#000000" d="M256.1905,-133.7273C256.1905,-135.5331 243.3212,-137 227.4783,-137 211.6354,-137 198.7661,-135.5331 198.7661,-133.7273 198.7661,-133.7273 198.7661,-104.2727 198.7661,-104.2727 198.7661,-102.4669 211.6354,-101 227.4783,-101 243.3212,-101 256.1905,-102.4669 256.1905,-104.2727 256.1905,-104.2727 256.1905,-133.7273 256.1905,-133.7273"/>
<path fill="none" stroke="#000000" d="M256.1905,-133.7273C256.1905,-131.9214 243.3212,-130.4545 227.4783,-130.4545 211.6354,-130.4545 198.7661,-131.9214 198.7661,-133.7273"/>
<text text-anchor="middle" x="227.4783" y="-114.8" font-family="Times,serif" font-size="14.00" fill="#000000">Tokens</text>
</g>
<!-- Lexer&#45;&gt;Tokens -->
<g id="edge7" class="edge">
<title>Lexer&#45;&gt;Tokens</title>
<path fill="none" stroke="#000000" stroke-dasharray="5,2" d="M154.5117,-52.0263C167.9849,-64.3929 186.0271,-80.9533 200.7994,-94.5123"/>
<polygon fill="#000000" stroke="#000000" points="198.4509,-97.1076 208.1848,-101.2911 203.1844,-91.9505 198.4509,-97.1076"/>
</g>
<!-- Evaluation -->
<g id="node3" class="node">
<title>Evaluation</title>
<polygon fill="none" stroke="#000000" points="539.5654,-46 475.2566,-46 475.2566,-22 539.5654,-22 551.5654,-34 539.5654,-46"/>
<text text-anchor="middle" x="513.411" y="-29.8" font-family="Times,serif" font-size="14.00" fill="#000000">Evaluation</text>
</g>
<!-- Parser&#45;&gt;Evaluation -->
<g id="edge2" class="edge">
<title>Parser&#45;&gt;Evaluation</title>
<path fill="none" stroke="#000000" d="M347.3732,-34C377.8175,-34 427.6668,-34 464.8132,-34"/>
<polygon fill="#000000" stroke="#000000" points="464.9269,-37.5001 474.9268,-34 464.9268,-30.5001 464.9269,-37.5001"/>
</g>
<!-- AST -->
<g id="node7" class="node">
<title>AST</title>
<path fill="none" stroke="#000000" d="M438.0842,-133.7273C438.0842,-135.5331 425.9824,-137 411.0842,-137 396.186,-137 384.0842,-135.5331 384.0842,-133.7273 384.0842,-133.7273 384.0842,-104.2727 384.0842,-104.2727 384.0842,-102.4669 396.186,-101 411.0842,-101 425.9824,-101 438.0842,-102.4669 438.0842,-104.2727 438.0842,-104.2727 438.0842,-133.7273 438.0842,-133.7273"/>
<path fill="none" stroke="#000000" d="M438.0842,-133.7273C438.0842,-131.9214 425.9824,-130.4545 411.0842,-130.4545 396.186,-130.4545 384.0842,-131.9214 384.0842,-133.7273"/>
<text text-anchor="middle" x="411.0842" y="-114.8" font-family="Times,serif" font-size="14.00" fill="#000000">AST</text>
</g>
<!-- Parser&#45;&gt;AST -->
<g id="edge9" class="edge">
<title>Parser&#45;&gt;AST</title>
<path fill="none" stroke="#000000" stroke-dasharray="5,2" d="M339.383,-52.0263C352.501,-64.2795 370.0269,-80.6498 384.4676,-94.1384"/>
<polygon fill="#000000" stroke="#000000" points="382.4283,-97.0228 392.1253,-101.2911 387.2065,-91.9073 382.4283,-97.0228"/>
</g>
<!-- REPL -->
<g id="node4" class="node">
<title>REPL</title>
<polygon fill="none" stroke="#000000" points="721.7378,-46 679.7378,-46 679.7378,-22 721.7378,-22 733.7378,-34 721.7378,-46"/>
<text text-anchor="middle" x="706.7378" y="-29.8" font-family="Times,serif" font-size="14.00" fill="#000000">REPL</text>
</g>
<!-- Evaluation&#45;&gt;REPL -->
<g id="edge3" class="edge">
<title>Evaluation&#45;&gt;REPL</title>
<path fill="none" stroke="#000000" d="M551.6062,-34C585.6645,-34 635.2345,-34 669.117,-34"/>
<polygon fill="#000000" stroke="#000000" points="669.5271,-37.5001 679.527,-34 669.527,-30.5001 669.5271,-37.5001"/>
</g>
<!-- Source -->
<g id="node5" class="node">
<title>Source</title>
<path fill="none" stroke="#000000" d="M70.8087,-133.7273C70.8087,-135.5331 58.5399,-137 43.4362,-137 28.3325,-137 16.0637,-135.5331 16.0637,-133.7273 16.0637,-133.7273 16.0637,-104.2727 16.0637,-104.2727 16.0637,-102.4669 28.3325,-101 43.4362,-101 58.5399,-101 70.8087,-102.4669 70.8087,-104.2727 70.8087,-104.2727 70.8087,-133.7273 70.8087,-133.7273"/>
<path fill="none" stroke="#000000" d="M70.8087,-133.7273C70.8087,-131.9214 58.5399,-130.4545 43.4362,-130.4545 28.3325,-130.4545 16.0637,-131.9214 16.0637,-133.7273"/>
<text text-anchor="middle" x="43.4362" y="-114.8" font-family="Times,serif" font-size="14.00" fill="#000000">Source</text>
</g>
<!-- Source&#45;&gt;Lexer -->
<g id="edge5" class="edge">
<title>Source&#45;&gt;Lexer</title>
<path fill="none" stroke="#000000" stroke-dasharray="5,2" d="M62.3818,-101.3879C75.567,-89.1309 93.3392,-72.6096 107.9864,-58.9935"/>
<polygon fill="#000000" stroke="#000000" points="110.379,-61.548 115.3202,-52.176 105.613,-56.4211 110.379,-61.548"/>
</g>
<!-- Source&#45;&gt;Tokens -->
<g id="edge4" class="edge">
<title>Source&#45;&gt;Tokens</title>
<path fill="none" stroke="#000000" d="M70.9892,-119C102.1595,-119 153.1622,-119 188.4271,-119"/>
<polygon fill="#000000" stroke="#000000" points="188.8267,-122.5001 198.8267,-119 188.8267,-115.5001 188.8267,-122.5001"/>
<text text-anchor="middle" x="134.8724" y="-123.2" font-family="Times,serif" font-size="14.00" fill="#000000">lexing</text>
</g>
<!-- Tokens&#45;&gt;Parser -->
<g id="edge8" class="edge">
<title>Tokens&#45;&gt;Parser</title>
<path fill="none" stroke="#000000" stroke-dasharray="5,2" d="M247.1176,-100.9737C260.3776,-88.8028 278.0632,-72.5698 292.7016,-59.1336"/>
<polygon fill="#000000" stroke="#000000" points="295.4728,-61.3409 300.4732,-52.0003 290.7393,-56.1839 295.4728,-61.3409"/>
</g>
<!-- Tokens&#45;&gt;AST -->
<g id="edge6" class="edge">
<title>Tokens&#45;&gt;AST</title>
<path fill="none" stroke="#000000" d="M256.1667,-119C287.7919,-119 338.7852,-119 373.562,-119"/>
<polygon fill="#000000" stroke="#000000" points="373.7948,-122.5001 383.7948,-119 373.7948,-115.5001 373.7948,-122.5001"/>
<text text-anchor="middle" x="320.0842" y="-123.2" font-family="Times,serif" font-size="14.00" fill="#000000">parsing</text>
</g>
<!-- Object -->
<g id="node8" class="node">
<title>Object</title>
<path fill="none" stroke="#000000" d="M642.7378,-133.7273C642.7378,-135.5331 630.636,-137 615.7378,-137 600.8396,-137 588.7378,-135.5331 588.7378,-133.7273 588.7378,-133.7273 588.7378,-104.2727 588.7378,-104.2727 588.7378,-102.4669 600.8396,-101 615.7378,-101 630.636,-101 642.7378,-102.4669 642.7378,-104.2727 642.7378,-104.2727 642.7378,-133.7273 642.7378,-133.7273"/>
<path fill="none" stroke="#000000" d="M642.7378,-133.7273C642.7378,-131.9214 630.636,-130.4545 615.7378,-130.4545 600.8396,-130.4545 588.7378,-131.9214 588.7378,-133.7273"/>
<text text-anchor="middle" x="615.7378" y="-114.8" font-family="Times,serif" font-size="14.00" fill="#000000">Object</text>
</g>
<!-- AST&#45;&gt;Object -->
<g id="edge10" class="edge">
<title>AST&#45;&gt;Object</title>
<path fill="none" stroke="#000000" d="M438.2606,-119C474.269,-119 537.9477,-119 578.4363,-119"/>
<polygon fill="#000000" stroke="#000000" points="578.449,-122.5001 588.449,-119 578.4489,-115.5001 578.449,-122.5001"/>
<text text-anchor="middle" x="513.411" y="-123.2" font-family="Times,serif" font-size="14.00" fill="#000000">evaluation</text>
</g>
</g>
</svg>
